<svg width="140" height="53" viewBox="0 0 140 53" fill="none" xmlns="http://www.w3.org/2000/svg">
<path d="M28.8926 3.7027L28.8963 3.70149L28.9322 3.69005C28.9666 3.67917 29.0218 3.66199 29.0964 3.63948C29.2456 3.59445 29.4724 3.52823 29.7666 3.44876C30.3555 3.28961 31.2103 3.0784 32.2501 2.87756C34.3438 2.47313 37.1189 2.12434 39.9547 2.29384C42.802 2.46403 45.5524 3.14692 47.7482 4.66289C49.8817 6.13573 51.6795 8.52126 52.4704 12.5041C53.2237 16.2977 52.4588 21.403 50.6004 26.6266C48.757 31.8082 45.945 36.8026 42.9432 40.309C41.4407 42.0642 39.9578 43.3675 38.6024 44.1557C37.241 44.9474 36.1894 45.1203 35.413 44.9662C34.6884 44.8223 33.7843 44.3101 32.8546 42.8009C31.9034 41.2568 31.0223 38.8066 30.4073 35.1435L25.9796 35.0876C24.5172 42.6265 22.0787 44.6057 20.4463 44.8941C19.547 45.053 18.3866 44.8406 16.9498 44.0253C15.5176 43.2125 13.9695 41.8856 12.4142 40.1175C9.3048 36.5828 6.42311 31.5779 4.56152 26.4264C2.68175 21.2246 1.96195 16.208 2.78986 12.5644C3.62407 8.89314 5.47806 6.61016 7.75446 5.14517C10.097 3.63763 13.0184 2.91737 16.0155 2.6838C18.9972 2.45143 21.9027 2.71223 24.0855 3.04064C25.1708 3.20391 26.0626 3.3816 26.6774 3.51698C26.9844 3.58459 27.2215 3.64145 27.3779 3.68036C27.4561 3.69981 27.5141 3.71476 27.5506 3.7243L27.5889 3.73444L27.5939 3.73578L27.5952 3.73612L27.5957 3.73625L27.5959 3.73631L28.2482 3.91502L28.8904 3.70342L28.8904 3.7034L28.8913 3.70313L28.8926 3.7027Z" fill="white" stroke="#F9D923" stroke-width="4.5"/>
<path d="M23.037 26C27.1738 28.6323 28.9325 28.4491 32.9908 26.164" stroke="#F9D923" stroke-width="2.5"/>
<path d="M22.7436 17.4361C22.7436 20.4081 20.583 22.6061 18.1661 22.6061C15.7491 22.6061 13.5885 20.4081 13.5885 17.4361C13.5885 14.4642 15.7491 12.2661 18.1661 12.2661C20.583 12.2661 22.7436 14.4642 22.7436 17.4361Z" fill="white" stroke="#F9D923" stroke-width="2.5"/>
<path d="M41.5066 17.4361C41.5066 20.4081 39.346 22.6061 36.929 22.6061C34.512 22.6061 32.3514 20.4081 32.3514 17.4361C32.3514 14.4642 34.512 12.2661 36.929 12.2661C39.346 12.2661 41.5066 14.4642 41.5066 17.4361Z" fill="white" stroke="#F9D923" stroke-width="2.5"/>
<path d="M23.3756 17.3275C23.3756 20.2608 21.3972 23.0161 20.1377 23.0161C18.8781 23.0161 17.8571 20.2608 17.8571 17.3275C17.8571 14.3941 18.8781 12.0161 20.1377 12.0161C21.3972 12.0161 23.3756 14.3941 23.3756 17.3275Z" fill="#F9D923"/>
<path d="M42.1385 17.3275C42.1385 20.2608 40.1602 23.0161 38.9006 23.0161C37.6411 23.0161 36.62 20.2608 36.62 17.3275C36.62 14.3941 37.6411 12.0161 38.9006 12.0161C40.1602 12.0161 42.1385 14.3941 42.1385 17.3275Z" fill="#F9D923"/>
<path d="M32.6528 35.3444C32.6528 36.4105 28.7436 35.6957 27.5997 35.6957C26.4559 35.6957 23.7226 36.5749 23.7227 35.3444C23.7227 32.0001 27.1975 32 28 32C30.2082 32 32.6528 32.5574 32.6528 35.3444Z" fill="#F9D923"/>
<path d="M65.6456 42.4183C63.6035 42.4183 61.8447 41.982 60.3693 41.1094C58.9029 40.2277 57.7694 38.9908 56.9688 37.3984C56.1771 35.7971 55.7812 33.9214 55.7812 31.7713C55.7812 29.6482 56.1771 27.777 56.9688 26.1577C57.7694 24.5384 58.8849 23.2744 60.3153 22.3658C61.7547 21.4571 63.437 21.0028 65.3622 21.0028C66.5317 21.0028 67.6652 21.1963 68.7628 21.5831C69.8603 21.9699 70.8454 22.5772 71.718 23.4048C72.5907 24.2325 73.2789 25.3075 73.7827 26.63C74.2865 27.9434 74.5384 29.5402 74.5384 31.4205V32.8509H58.0618V29.8281H70.5845C70.5845 28.7666 70.3686 27.8265 69.9368 27.0078C69.505 26.1802 68.8977 25.5279 68.1151 25.0511C67.3414 24.5743 66.4328 24.3359 65.3892 24.3359C64.2557 24.3359 63.2661 24.6148 62.4205 25.1726C61.5838 25.7214 60.9361 26.4411 60.4773 27.3317C60.0275 28.2133 59.8026 29.1714 59.8026 30.206V32.5675C59.8026 33.9529 60.0455 35.1314 60.5312 36.103C61.026 37.0746 61.7143 37.8168 62.5959 38.3295C63.4775 38.8333 64.5076 39.0852 65.6861 39.0852C66.4508 39.0852 67.148 38.9773 67.7777 38.7614C68.4074 38.5365 68.9517 38.2036 69.4105 37.7628C69.8693 37.322 70.2202 36.7777 70.4631 36.13L74.282 36.8182C73.9761 37.9427 73.4273 38.9278 72.6357 39.7734C71.853 40.6101 70.8679 41.2623 69.6804 41.7301C68.5019 42.1889 67.157 42.4183 65.6456 42.4183ZM84.1899 29.6932V42H80.1551V21.2727H84.028V24.6463H84.2844C84.7612 23.5488 85.5078 22.6671 86.5244 22.0014C87.55 21.3357 88.8409 21.0028 90.3973 21.0028C91.8097 21.0028 93.0467 21.2997 94.1082 21.8935C95.1698 22.4782 95.9929 23.3509 96.5777 24.5114C97.1624 25.6719 97.4548 27.1068 97.4548 28.8161V42H93.42V29.3018C93.42 27.7995 93.0287 26.6255 92.246 25.7798C91.4633 24.9252 90.3883 24.4979 89.0209 24.4979C88.0853 24.4979 87.2531 24.7003 86.5244 25.1051C85.8047 25.5099 85.2335 26.1037 84.8106 26.8864C84.3968 27.66 84.1899 28.5956 84.1899 29.6932ZM113.681 21.2727V24.5114H102.36V21.2727H113.681ZM105.396 16.3068H109.431V35.9141C109.431 36.6967 109.548 37.286 109.782 37.6818C110.015 38.0687 110.317 38.334 110.686 38.478C111.064 38.6129 111.473 38.6804 111.914 38.6804C112.238 38.6804 112.521 38.6579 112.764 38.6129C113.007 38.5679 113.196 38.532 113.331 38.505L114.059 41.8381C113.825 41.928 113.493 42.018 113.061 42.108C112.629 42.2069 112.089 42.2609 111.441 42.2699C110.38 42.2879 109.39 42.099 108.473 41.7031C107.555 41.3073 106.813 40.6955 106.246 39.8679C105.679 39.0402 105.396 38.0012 105.396 36.7507V16.3068ZM125.317 42.4588C124.003 42.4588 122.816 42.2159 121.754 41.7301C120.693 41.2353 119.851 40.5201 119.231 39.5845C118.619 38.6489 118.313 37.5019 118.313 36.1435C118.313 34.974 118.538 34.0114 118.988 33.2557C119.438 32.5 120.045 31.9018 120.81 31.4609C121.574 31.0201 122.429 30.6873 123.373 30.4624C124.318 30.2375 125.281 30.0665 126.261 29.9496C127.503 29.8056 128.51 29.6887 129.284 29.5987C130.058 29.4998 130.62 29.3423 130.971 29.1264C131.322 28.9105 131.497 28.5597 131.497 28.0739V27.9794C131.497 26.8009 131.164 25.8878 130.498 25.2401C129.842 24.5923 128.861 24.2685 127.557 24.2685C126.198 24.2685 125.128 24.5698 124.345 25.1726C123.571 25.7663 123.036 26.4276 122.739 27.1562L118.947 26.2926C119.397 25.0331 120.054 24.0166 120.918 23.2429C121.79 22.4602 122.793 21.8935 123.927 21.5426C125.06 21.1828 126.252 21.0028 127.503 21.0028C128.33 21.0028 129.208 21.1018 130.134 21.2997C131.07 21.4886 131.942 21.8395 132.752 22.3523C133.571 22.8651 134.241 23.5982 134.763 24.5518C135.284 25.4964 135.545 26.7244 135.545 28.2358V42H131.605V39.1662H131.443C131.182 39.688 130.791 40.2008 130.269 40.7045C129.747 41.2083 129.077 41.6267 128.258 41.9595C127.44 42.2924 126.459 42.4588 125.317 42.4588ZM126.194 39.2202C127.309 39.2202 128.263 38.9998 129.055 38.5589C129.855 38.1181 130.462 37.5424 130.876 36.8317C131.299 36.112 131.511 35.3428 131.511 34.5241V31.8523C131.367 31.9962 131.088 32.1312 130.674 32.2571C130.269 32.3741 129.806 32.4775 129.284 32.5675C128.762 32.6484 128.254 32.7249 127.759 32.7969C127.264 32.8598 126.851 32.9138 126.518 32.9588C125.735 33.0578 125.02 33.2242 124.372 33.4581C123.733 33.692 123.221 34.0294 122.834 34.4702C122.456 34.902 122.267 35.4777 122.267 36.1974C122.267 37.196 122.636 37.9517 123.373 38.4645C124.111 38.9683 125.051 39.2202 126.194 39.2202Z" fill="#4643D2"/>
</svg>
