<svg width="138" height="56" viewBox="0 0 138 56" fill="none" xmlns="http://www.w3.org/2000/svg">
<path d="M28.8926 3.7027L28.8963 3.70149L28.9322 3.69005C28.9666 3.67917 29.0218 3.66199 29.0964 3.63948C29.2456 3.59445 29.4724 3.52823 29.7666 3.44876C30.3555 3.28961 31.2103 3.0784 32.2501 2.87756C34.3438 2.47313 37.1189 2.12434 39.9547 2.29384C42.802 2.46403 45.5524 3.14692 47.7482 4.66289C49.8817 6.13573 51.6795 8.52126 52.4704 12.5041C53.2237 16.2977 52.4588 21.403 50.6004 26.6266C48.757 31.8082 45.945 36.8026 42.9432 40.309C41.4407 42.0642 39.9578 43.3675 38.6024 44.1557C37.241 44.9474 36.1894 45.1203 35.413 44.9662C34.6884 44.8223 33.7843 44.3101 32.8546 42.8009C31.9034 41.2568 31.0223 38.8066 30.4073 35.1435L25.9796 35.0876C24.5172 42.6265 22.0787 44.6057 20.4463 44.8941C19.547 45.053 18.3866 44.8406 16.9498 44.0253C15.5176 43.2125 13.9695 41.8856 12.4142 40.1175C9.3048 36.5828 6.42311 31.5779 4.56152 26.4264C2.68175 21.2246 1.96195 16.208 2.78986 12.5644C3.62407 8.89314 5.47806 6.61016 7.75446 5.14517C10.097 3.63763 13.0184 2.91737 16.0155 2.6838C18.9972 2.45143 21.9027 2.71223 24.0855 3.04064C25.1708 3.20391 26.0626 3.3816 26.6774 3.51698C26.9844 3.58459 27.2215 3.64145 27.3779 3.68036C27.4561 3.69981 27.5141 3.71476 27.5506 3.7243L27.5889 3.73444L27.5939 3.73578L27.5952 3.73612L27.5957 3.73625L27.5959 3.73631L28.2482 3.91502L28.8904 3.70342L28.8904 3.7034L28.8913 3.70313L28.8926 3.7027Z" fill="white" stroke="#F9D923" stroke-width="4.5"/>
<path d="M23.037 26C27.1738 28.6323 28.9325 28.4491 32.9908 26.164" stroke="#F9D923" stroke-width="2.5"/>
<path d="M22.7436 17.4361C22.7436 20.4081 20.583 22.6061 18.1661 22.6061C15.7491 22.6061 13.5885 20.4081 13.5885 17.4361C13.5885 14.4642 15.7491 12.2661 18.1661 12.2661C20.583 12.2661 22.7436 14.4642 22.7436 17.4361Z" fill="white" stroke="#F9D923" stroke-width="2.5"/>
<path d="M41.5066 17.4361C41.5066 20.4081 39.346 22.6061 36.929 22.6061C34.512 22.6061 32.3514 20.4081 32.3514 17.4361C32.3514 14.4642 34.512 12.2661 36.929 12.2661C39.346 12.2661 41.5066 14.4642 41.5066 17.4361Z" fill="white" stroke="#F9D923" stroke-width="2.5"/>
<path d="M23.3756 17.3275C23.3756 20.2608 21.3972 23.0161 20.1377 23.0161C18.8781 23.0161 17.8571 20.2608 17.8571 17.3275C17.8571 14.3941 18.8781 12.0161 20.1377 12.0161C21.3972 12.0161 23.3756 14.3941 23.3756 17.3275Z" fill="#F9D923"/>
<path d="M42.1385 17.3275C42.1385 20.2608 40.1602 23.0161 38.9006 23.0161C37.6411 23.0161 36.62 20.2608 36.62 17.3275C36.62 14.3941 37.6411 12.0161 38.9006 12.0161C40.1602 12.0161 42.1385 14.3941 42.1385 17.3275Z" fill="#F9D923"/>
<path d="M32.6528 35.3444C32.6528 36.4105 28.7436 35.6957 27.5997 35.6957C26.4559 35.6957 23.7226 36.5749 23.7227 35.3444C23.7227 32.0001 27.1975 32 28 32C30.2082 32 32.6528 32.5574 32.6528 35.3444Z" fill="#F9D923"/>
<path d="M63.6456 45.4183C61.6035 45.4183 59.8447 44.982 58.3693 44.1094C56.9029 43.2277 55.7694 41.9908 54.9688 40.3984C54.1771 38.7971 53.7812 36.9214 53.7812 34.7713C53.7812 32.6482 54.1771 30.777 54.9688 29.1577C55.7694 27.5384 56.8849 26.2744 58.3153 25.3658C59.7547 24.4571 61.437 24.0028 63.3622 24.0028C64.5317 24.0028 65.6652 24.1963 66.7628 24.5831C67.8603 24.9699 68.8454 25.5772 69.718 26.4048C70.5907 27.2325 71.2789 28.3075 71.7827 29.63C72.2865 30.9434 72.5384 32.5402 72.5384 34.4205V35.8509H56.0618V32.8281H68.5845C68.5845 31.7666 68.3686 30.8265 67.9368 30.0078C67.505 29.1802 66.8977 28.5279 66.1151 28.0511C65.3414 27.5743 64.4328 27.3359 63.3892 27.3359C62.2557 27.3359 61.2661 27.6148 60.4205 28.1726C59.5838 28.7214 58.9361 29.4411 58.4773 30.3317C58.0275 31.2133 57.8026 32.1714 57.8026 33.206V35.5675C57.8026 36.9529 58.0455 38.1314 58.5312 39.103C59.026 40.0746 59.7143 40.8168 60.5959 41.3295C61.4775 41.8333 62.5076 42.0852 63.6861 42.0852C64.4508 42.0852 65.148 41.9773 65.7777 41.7614C66.4074 41.5365 66.9517 41.2036 67.4105 40.7628C67.8693 40.322 68.2202 39.7777 68.4631 39.13L72.282 39.8182C71.9761 40.9427 71.4273 41.9278 70.6357 42.7734C69.853 43.6101 68.8679 44.2623 67.6804 44.7301C66.5019 45.1889 65.157 45.4183 63.6456 45.4183ZM82.5699 32.6932V45H78.5351V24.2727H82.408V27.6463H82.6644C83.1412 26.5488 83.8878 25.6671 84.9044 25.0014C85.93 24.3357 87.2209 24.0028 88.7773 24.0028C90.1897 24.0028 91.4267 24.2997 92.4882 24.8935C93.5498 25.4782 94.3729 26.3509 94.9577 27.5114C95.5424 28.6719 95.8348 30.1068 95.8348 31.8161V45H91.8V32.3018C91.8 30.7995 91.4087 29.6255 90.626 28.7798C89.8433 27.9252 88.7683 27.4979 87.4009 27.4979C86.4653 27.4979 85.6331 27.7003 84.9044 28.1051C84.1847 28.5099 83.6135 29.1037 83.1906 29.8864C82.7768 30.66 82.5699 31.5956 82.5699 32.6932ZM112.441 24.2727V27.5114H101.12V24.2727H112.441ZM104.156 19.3068H108.191V38.9141C108.191 39.6967 108.308 40.286 108.542 40.6818C108.776 41.0687 109.077 41.334 109.446 41.478C109.824 41.6129 110.233 41.6804 110.674 41.6804C110.998 41.6804 111.281 41.6579 111.524 41.6129C111.767 41.5679 111.956 41.532 112.091 41.505L112.819 44.8381C112.585 44.928 112.253 45.018 111.821 45.108C111.389 45.2069 110.849 45.2609 110.201 45.2699C109.14 45.2879 108.15 45.099 107.233 44.7031C106.315 44.3073 105.573 43.6955 105.006 42.8679C104.439 42.0402 104.156 41.0012 104.156 39.7507V19.3068ZM124.457 45.4588C123.143 45.4588 121.956 45.2159 120.894 44.7301C119.833 44.2353 118.991 43.5201 118.371 42.5845C117.759 41.6489 117.453 40.5019 117.453 39.1435C117.453 37.974 117.678 37.0114 118.128 36.2557C118.578 35.5 119.185 34.9018 119.95 34.4609C120.714 34.0201 121.569 33.6873 122.513 33.4624C123.458 33.2375 124.421 33.0665 125.401 32.9496C126.643 32.8056 127.65 32.6887 128.424 32.5987C129.198 32.4998 129.76 32.3423 130.111 32.1264C130.462 31.9105 130.637 31.5597 130.637 31.0739V30.9794C130.637 29.8009 130.304 28.8878 129.638 28.2401C128.982 27.5923 128.001 27.2685 126.697 27.2685C125.338 27.2685 124.268 27.5698 123.485 28.1726C122.711 28.7663 122.176 29.4276 121.879 30.1562L118.087 29.2926C118.537 28.0331 119.194 27.0166 120.058 26.2429C120.93 25.4602 121.933 24.8935 123.067 24.5426C124.2 24.1828 125.392 24.0028 126.643 24.0028C127.47 24.0028 128.348 24.1018 129.274 24.2997C130.21 24.4886 131.082 24.8395 131.892 25.3523C132.711 25.8651 133.381 26.5982 133.903 27.5518C134.424 28.4964 134.685 29.7244 134.685 31.2358V45H130.745V42.1662H130.583C130.322 42.688 129.931 43.2008 129.409 43.7045C128.887 44.2083 128.217 44.6267 127.398 44.9595C126.58 45.2924 125.599 45.4588 124.457 45.4588ZM125.334 42.2202C126.449 42.2202 127.403 41.9998 128.195 41.5589C128.995 41.1181 129.602 40.5424 130.016 39.8317C130.439 39.112 130.651 38.3428 130.651 37.5241V34.8523C130.507 34.9962 130.228 35.1312 129.814 35.2571C129.409 35.3741 128.946 35.4775 128.424 35.5675C127.902 35.6484 127.394 35.7249 126.899 35.7969C126.404 35.8598 125.991 35.9138 125.658 35.9588C124.875 36.0578 124.16 36.2242 123.512 36.4581C122.873 36.692 122.361 37.0294 121.974 37.4702C121.596 37.902 121.407 38.4777 121.407 39.1974C121.407 40.196 121.776 40.9517 122.513 41.4645C123.251 41.9683 124.191 42.2202 125.334 42.2202Z" fill="#4643D2"/>
</svg>
