<svg width="138" height="53" viewBox="0 0 138 53" fill="none" xmlns="http://www.w3.org/2000/svg">
<path d="M28.8143 3.46526L28.8195 3.46359L28.8569 3.45167C28.8923 3.44048 28.9485 3.42297 29.0242 3.40013C29.1756 3.35445 29.4047 3.28757 29.7013 3.20741C30.2952 3.04693 31.156 2.83426 32.2026 2.6321C34.3086 2.22531 37.1059 1.87311 39.9696 2.04429C42.8436 2.21607 45.6438 2.90625 47.8903 4.45715C50.0812 5.96972 51.9131 8.41377 52.7156 12.4554C53.4814 16.3122 52.7013 21.4673 50.836 26.7104C48.984 31.9162 46.1578 36.9385 43.1331 40.4716C41.6193 42.2399 40.1156 43.5649 38.7281 44.3718C37.3352 45.1818 36.2208 45.3814 35.3643 45.2114C34.5539 45.0504 33.5973 44.4832 32.6417 42.932C31.6671 41.3498 30.7786 38.8646 30.1608 35.1849L26.225 35.1352C24.7607 42.6837 22.2926 44.8218 20.4898 45.1403C19.5146 45.3126 18.2944 45.0757 16.8265 44.2427C15.3625 43.4119 13.7935 42.064 12.2265 40.2827C9.09361 36.7212 6.19709 31.688 4.3264 26.5114C2.43955 21.29 1.70285 16.22 2.54608 12.509C3.3949 8.77342 5.28816 6.43507 7.61917 4.93494C10.0089 3.39699 12.9756 2.66995 15.9961 2.43455C19.0029 2.20022 21.9285 2.4633 24.1227 2.79342C25.2143 2.95765 26.1117 3.13643 26.7311 3.27283C27.0405 3.34096 27.2798 3.39833 27.4383 3.43775C27.5175 3.45745 27.5765 3.47265 27.6139 3.48244L27.6536 3.49296L27.66 3.49466L27.6611 3.49495L27.6616 3.4951L28.2416 3.65398L28.8126 3.46584L28.8128 3.46575L28.8132 3.46563L28.8143 3.46526Z" fill="white" stroke="#F9D923" stroke-width="4"/>
<path d="M22.309 27.0161C26.4457 29.6485 28.2045 29.4652 32.2627 27.1801" stroke="#F9D923" stroke-width="2"/>
<path d="M22.9936 17.4361C22.9936 20.5228 20.7433 22.8561 18.1661 22.8561C15.5888 22.8561 13.3385 20.5228 13.3385 17.4361C13.3385 14.3494 15.5888 12.0161 18.1661 12.0161C20.7433 12.0161 22.9936 14.3494 22.9936 17.4361Z" fill="white" stroke="#F9D923" stroke-width="2"/>
<path d="M41.7566 17.4361C41.7566 20.5228 39.5063 22.8561 36.929 22.8561C34.3517 22.8561 32.1014 20.5228 32.1014 17.4361C32.1014 14.3494 34.3517 12.0161 36.929 12.0161C39.5063 12.0161 41.7566 14.3494 41.7566 17.4361Z" fill="white" stroke="#F9D923" stroke-width="2"/>
<path d="M23.3756 17.3275C23.3756 20.2608 21.3972 23.0161 20.1377 23.0161C18.8781 23.0161 17.8571 20.2608 17.8571 17.3275C17.8571 14.3941 18.8781 12.0161 20.1377 12.0161C21.3972 12.0161 23.3756 14.3941 23.3756 17.3275Z" fill="#F9D923"/>
<path d="M42.1385 17.3275C42.1385 20.2608 40.1602 23.0161 38.9006 23.0161C37.6411 23.0161 36.62 20.2608 36.62 17.3275C36.62 14.3941 37.6411 12.0161 38.9006 12.0161C40.1602 12.0161 42.1385 14.3941 42.1385 17.3275Z" fill="#F9D923"/>
<path d="M32.2 35.5C32.2 36.4563 28.9436 35.8151 27.7997 35.8151C26.6559 35.8151 24.1999 36.6037 24.2 35.5C24.2 32.5001 27.3975 32.5 28.2 32.5C30.4082 32.5 32.2 33 32.2 35.5Z" fill="#F9D923"/>
<path d="M63.6456 42.4183C61.6035 42.4183 59.8447 41.982 58.3693 41.1094C56.9029 40.2277 55.7694 38.9908 54.9688 37.3984C54.1771 35.7971 53.7812 33.9214 53.7812 31.7713C53.7812 29.6482 54.1771 27.777 54.9688 26.1577C55.7694 24.5384 56.8849 23.2744 58.3153 22.3658C59.7547 21.4571 61.437 21.0028 63.3622 21.0028C64.5317 21.0028 65.6652 21.1963 66.7628 21.5831C67.8603 21.9699 68.8454 22.5772 69.718 23.4048C70.5907 24.2325 71.2789 25.3075 71.7827 26.63C72.2865 27.9434 72.5384 29.5402 72.5384 31.4205V32.8509H56.0618V29.8281H68.5845C68.5845 28.7666 68.3686 27.8265 67.9368 27.0078C67.505 26.1802 66.8977 25.5279 66.1151 25.0511C65.3414 24.5743 64.4328 24.3359 63.3892 24.3359C62.2557 24.3359 61.2661 24.6148 60.4205 25.1726C59.5838 25.7214 58.9361 26.4411 58.4773 27.3317C58.0275 28.2133 57.8026 29.1714 57.8026 30.206V32.5675C57.8026 33.9529 58.0455 35.1314 58.5312 36.103C59.026 37.0746 59.7143 37.8168 60.5959 38.3295C61.4775 38.8333 62.5076 39.0852 63.6861 39.0852C64.4508 39.0852 65.148 38.9773 65.7777 38.7614C66.4074 38.5365 66.9517 38.2036 67.4105 37.7628C67.8693 37.322 68.2202 36.7777 68.4631 36.13L72.282 36.8182C71.9761 37.9427 71.4273 38.9278 70.6357 39.7734C69.853 40.6101 68.8679 41.2623 67.6804 41.7301C66.5019 42.1889 65.157 42.4183 63.6456 42.4183ZM82.5699 29.6932V42H78.5351V21.2727H82.408V24.6463H82.6644C83.1412 23.5488 83.8878 22.6671 84.9044 22.0014C85.93 21.3357 87.2209 21.0028 88.7773 21.0028C90.1897 21.0028 91.4267 21.2997 92.4882 21.8935C93.5498 22.4782 94.3729 23.3509 94.9577 24.5114C95.5424 25.6719 95.8348 27.1068 95.8348 28.8161V42H91.8V29.3018C91.8 27.7995 91.4087 26.6255 90.626 25.7798C89.8433 24.9252 88.7683 24.4979 87.4009 24.4979C86.4653 24.4979 85.6331 24.7003 84.9044 25.1051C84.1847 25.5099 83.6135 26.1037 83.1906 26.8864C82.7768 27.66 82.5699 28.5956 82.5699 29.6932ZM112.441 21.2727V24.5114H101.12V21.2727H112.441ZM104.156 16.3068H108.191V35.9141C108.191 36.6967 108.308 37.286 108.542 37.6818C108.776 38.0687 109.077 38.334 109.446 38.478C109.824 38.6129 110.233 38.6804 110.674 38.6804C110.998 38.6804 111.281 38.6579 111.524 38.6129C111.767 38.5679 111.956 38.532 112.091 38.505L112.819 41.8381C112.585 41.928 112.253 42.018 111.821 42.108C111.389 42.2069 110.849 42.2609 110.201 42.2699C109.14 42.2879 108.15 42.099 107.233 41.7031C106.315 41.3073 105.573 40.6955 105.006 39.8679C104.439 39.0402 104.156 38.0012 104.156 36.7507V16.3068ZM124.457 42.4588C123.143 42.4588 121.956 42.2159 120.894 41.7301C119.833 41.2353 118.991 40.5201 118.371 39.5845C117.759 38.6489 117.453 37.5019 117.453 36.1435C117.453 34.974 117.678 34.0114 118.128 33.2557C118.578 32.5 119.185 31.9018 119.95 31.4609C120.714 31.0201 121.569 30.6873 122.513 30.4624C123.458 30.2375 124.421 30.0665 125.401 29.9496C126.643 29.8056 127.65 29.6887 128.424 29.5987C129.198 29.4998 129.76 29.3423 130.111 29.1264C130.462 28.9105 130.637 28.5597 130.637 28.0739V27.9794C130.637 26.8009 130.304 25.8878 129.638 25.2401C128.982 24.5923 128.001 24.2685 126.697 24.2685C125.338 24.2685 124.268 24.5698 123.485 25.1726C122.711 25.7663 122.176 26.4276 121.879 27.1562L118.087 26.2926C118.537 25.0331 119.194 24.0166 120.058 23.2429C120.93 22.4602 121.933 21.8935 123.067 21.5426C124.2 21.1828 125.392 21.0028 126.643 21.0028C127.47 21.0028 128.348 21.1018 129.274 21.2997C130.21 21.4886 131.082 21.8395 131.892 22.3523C132.711 22.8651 133.381 23.5982 133.903 24.5518C134.424 25.4964 134.685 26.7244 134.685 28.2358V42H130.745V39.1662H130.583C130.322 39.688 129.931 40.2008 129.409 40.7045C128.887 41.2083 128.217 41.6267 127.398 41.9595C126.58 42.2924 125.599 42.4588 124.457 42.4588ZM125.334 39.2202C126.449 39.2202 127.403 38.9998 128.195 38.5589C128.995 38.1181 129.602 37.5424 130.016 36.8317C130.439 36.112 130.651 35.3428 130.651 34.5241V31.8523C130.507 31.9962 130.228 32.1312 129.814 32.2571C129.409 32.3741 128.946 32.4775 128.424 32.5675C127.902 32.6484 127.394 32.7249 126.899 32.7969C126.404 32.8598 125.991 32.9138 125.658 32.9588C124.875 33.0578 124.16 33.2242 123.512 33.4581C122.873 33.692 122.361 34.0294 121.974 34.4702C121.596 34.902 121.407 35.4777 121.407 36.1974C121.407 37.196 121.776 37.9517 122.513 38.4645C123.251 38.9683 124.191 39.2202 125.334 39.2202Z" fill="#4643D2"/>
</svg>
