<svg width="152" height="50" viewBox="0 0 152 50" fill="none" xmlns="http://www.w3.org/2000/svg">
<path d="M28.6926 5.7027L28.6964 5.70149L28.7323 5.69005C28.7667 5.67917 28.8218 5.66199 28.8964 5.63948C29.0457 5.59445 29.2725 5.52823 29.5666 5.44876C30.1556 5.28961 31.0104 5.0784 32.0501 4.87756C34.1439 4.47313 36.9189 4.12434 39.7548 4.29384C42.6021 4.46403 45.3524 5.14692 47.5483 6.66289C49.6817 8.13573 51.4796 10.5213 52.2704 14.5041C53.0237 18.2977 52.2589 23.403 50.4005 28.6266C48.5571 33.8082 45.745 38.8026 42.7433 42.309C41.2407 44.0642 39.7579 45.3675 38.4025 46.1557C37.041 46.9474 35.9895 47.1203 35.2131 46.9662C34.4885 46.8223 33.5844 46.3101 32.6546 44.8009C31.7034 43.2568 30.8224 40.8066 30.2074 37.1435L25.7796 37.0876C24.3172 44.6265 21.8787 46.6057 20.2464 46.8941C19.3471 47.053 18.1867 46.8406 16.7499 46.0253C15.3177 45.2125 13.7696 43.8856 12.2142 42.1175C9.10485 38.5828 6.22316 33.5779 4.36157 28.4264C2.4818 23.2246 1.762 18.208 2.58991 14.5644C3.42412 10.8931 5.27811 8.61016 7.55451 7.14517C9.89703 5.63763 12.8185 4.91737 15.8156 4.6838C18.7972 4.45143 21.7028 4.71223 23.8856 5.04064C24.9708 5.20391 25.8626 5.3816 26.4774 5.51698C26.7845 5.58459 27.0215 5.64145 27.178 5.68036C27.2562 5.69981 27.3142 5.71476 27.3506 5.7243L27.389 5.73444L27.394 5.73578L27.3952 5.73612L27.3957 5.73625L27.3959 5.73631L28.0483 5.91502L28.6904 5.70342L28.6905 5.7034L28.6913 5.70313L28.6926 5.7027Z" fill="white" stroke="#F9D923" stroke-width="4.5"/>
<path d="M22.837 28C26.9738 30.6323 28.7325 30.4491 32.7908 28.164" stroke="#F9D923" stroke-width="2.5"/>
<path d="M22.5437 19.4361C22.5437 22.4081 20.3831 24.6061 17.9661 24.6061C15.5491 24.6061 13.3885 22.4081 13.3885 19.4361C13.3885 16.4642 15.5491 14.2661 17.9661 14.2661C20.3831 14.2661 22.5437 16.4642 22.5437 19.4361Z" fill="white" stroke="#F9D923" stroke-width="2.5"/>
<path d="M41.3066 19.4361C41.3066 22.4081 39.146 24.6061 36.729 24.6061C34.3121 24.6061 32.1515 22.4081 32.1515 19.4361C32.1515 16.4642 34.3121 14.2661 36.729 14.2661C39.146 14.2661 41.3066 16.4642 41.3066 19.4361Z" fill="white" stroke="#F9D923" stroke-width="2.5"/>
<path d="M23.1756 19.3275C23.1756 22.2608 21.1973 25.0161 19.9377 25.0161C18.6782 25.0161 17.6571 22.2608 17.6571 19.3275C17.6571 16.3941 18.6782 14.0161 19.9377 14.0161C21.1973 14.0161 23.1756 16.3941 23.1756 19.3275Z" fill="#F9D923"/>
<path d="M41.9386 19.3275C41.9386 22.2608 39.9602 25.0161 38.7007 25.0161C37.4411 25.0161 36.42 22.2608 36.42 19.3275C36.42 16.3941 37.4411 14.0161 38.7007 14.0161C39.9602 14.0161 41.9386 16.3941 41.9386 19.3275Z" fill="#F9D923"/>
<path d="M32.4528 37.3444C32.4528 38.4105 28.5436 37.6957 27.3998 37.6957C26.2559 37.6957 23.5227 38.5749 23.5227 37.3444C23.5227 34.0001 26.9976 34 27.8 34C30.0082 34 32.4528 34.5574 32.4528 37.3444Z" fill="#F9D923"/>
<path d="M67.3011 39.4261C65.1136 39.4261 63.2244 38.9716 61.6335 38.0625C60.0521 37.1439 58.8352 35.8466 57.983 34.1705C57.1307 32.4848 56.7045 30.5009 56.7045 28.2188C56.7045 25.9744 57.1307 24.0047 57.983 22.3097C58.8447 20.6051 60.0473 19.2794 61.5909 18.3324C63.1345 17.3759 64.9479 16.8977 67.0312 16.8977C68.3759 16.8977 69.6449 17.1155 70.8381 17.5511C72.0407 17.9773 73.1013 18.6402 74.0199 19.5398C74.9479 20.4394 75.6771 21.5852 76.2074 22.9773C76.7377 24.3598 77.0028 26.0076 77.0028 27.9205V29.4972H59.1193V26.0312H72.0739C72.0644 25.0464 71.8513 24.1705 71.4347 23.4034C71.018 22.6269 70.4356 22.0161 69.6875 21.571C68.9489 21.1259 68.0871 20.9034 67.1023 20.9034C66.0511 20.9034 65.1278 21.1591 64.3324 21.6705C63.5369 22.1723 62.9167 22.8352 62.4716 23.6591C62.036 24.4735 61.8134 25.3684 61.804 26.3438V29.3693C61.804 30.6383 62.036 31.7273 62.5 32.6364C62.964 33.536 63.6127 34.2273 64.446 34.7102C65.2794 35.1837 66.2547 35.4205 67.3722 35.4205C68.1203 35.4205 68.7973 35.3163 69.4034 35.108C70.0095 34.8902 70.535 34.5729 70.9801 34.1562C71.4252 33.7396 71.7614 33.2235 71.9886 32.608L76.7898 33.1477C76.4867 34.4167 75.9091 35.5246 75.0568 36.4716C74.214 37.4091 73.1345 38.1383 71.8182 38.6591C70.5019 39.1705 68.9962 39.4261 67.3011 39.4261ZM89.295 26.2159V39H84.153V17.1818H89.0678V20.8892H89.3234C89.8253 19.6676 90.6255 18.697 91.724 17.9773C92.832 17.2576 94.2003 16.8977 95.8291 16.8977C97.3348 16.8977 98.6464 17.2197 99.7638 17.8636C100.891 18.5076 101.762 19.4403 102.377 20.6619C103.002 21.8835 103.31 23.3655 103.301 25.108V39H98.1587V25.9034C98.1587 24.4451 97.7799 23.304 97.0223 22.4801C96.2742 21.6562 95.2373 21.2443 93.9115 21.2443C93.0119 21.2443 92.2117 21.4432 91.5109 21.8409C90.8196 22.2292 90.2751 22.7926 89.8774 23.5312C89.4892 24.2699 89.295 25.1648 89.295 26.2159ZM122.223 17.1818V21.1591H109.68V17.1818H122.223ZM112.777 11.9545H117.919V32.4375C117.919 33.1288 118.023 33.6591 118.231 34.0284C118.449 34.3883 118.733 34.6345 119.084 34.767C119.434 34.8996 119.822 34.9659 120.248 34.9659C120.57 34.9659 120.864 34.9422 121.129 34.8949C121.404 34.8475 121.612 34.8049 121.754 34.767L122.621 38.7869C122.346 38.8816 121.953 38.9858 121.442 39.0994C120.94 39.2131 120.324 39.2794 119.595 39.2983C118.307 39.3362 117.147 39.142 116.115 38.7159C115.083 38.2803 114.264 37.608 113.658 36.6989C113.061 35.7898 112.767 34.6534 112.777 33.2898V11.9545ZM135.602 39.4403C134.219 39.4403 132.974 39.1941 131.866 38.7017C130.767 38.1998 129.896 37.4612 129.252 36.4858C128.618 35.5104 128.301 34.3078 128.301 32.8778C128.301 31.6468 128.528 30.6288 128.982 29.8239C129.437 29.0189 130.057 28.375 130.843 27.892C131.629 27.4091 132.515 27.0445 133.499 26.7983C134.494 26.5426 135.521 26.358 136.582 26.2443C137.86 26.1117 138.897 25.9934 139.693 25.8892C140.488 25.7756 141.066 25.6051 141.426 25.3778C141.795 25.1411 141.98 24.7765 141.98 24.2841V24.1989C141.98 23.1288 141.662 22.3002 141.028 21.7131C140.393 21.1259 139.48 20.8324 138.286 20.8324C137.027 20.8324 136.028 21.107 135.289 21.6562C134.56 22.2055 134.068 22.8542 133.812 23.6023L129.011 22.9205C129.39 21.5947 130.015 20.4867 130.886 19.5966C131.757 18.697 132.822 18.0246 134.082 17.5795C135.341 17.125 136.733 16.8977 138.258 16.8977C139.309 16.8977 140.355 17.0208 141.397 17.267C142.439 17.5133 143.391 17.9205 144.252 18.4886C145.114 19.0473 145.805 19.8097 146.326 20.7756C146.856 21.7415 147.122 22.9489 147.122 24.3977V39H142.178V36.0028H142.008C141.695 36.6089 141.255 37.1771 140.687 37.7074C140.128 38.2282 139.423 38.6496 138.57 38.9716C137.728 39.2841 136.738 39.4403 135.602 39.4403ZM136.937 35.6619C137.969 35.6619 138.864 35.4583 139.622 35.0511C140.379 34.6345 140.962 34.0852 141.369 33.4034C141.785 32.7216 141.994 31.9782 141.994 31.1733V28.6023C141.833 28.7348 141.558 28.858 141.17 28.9716C140.791 29.0852 140.365 29.1847 139.891 29.2699C139.418 29.3551 138.949 29.4309 138.485 29.4972C138.021 29.5634 137.619 29.6203 137.278 29.6676C136.511 29.7718 135.824 29.9422 135.218 30.179C134.612 30.4157 134.134 30.7472 133.784 31.1733C133.433 31.59 133.258 32.1297 133.258 32.7926C133.258 33.7396 133.604 34.4545 134.295 34.9375C134.986 35.4205 135.867 35.6619 136.937 35.6619Z" fill="#4643D2"/>
</svg>
