<svg width="146" height="53" viewBox="0 0 146 53" fill="none" xmlns="http://www.w3.org/2000/svg">
<path d="M28.4579 2.99037L28.4659 2.98777L28.5063 2.97491C28.5437 2.96308 28.602 2.94493 28.6798 2.92144C28.8355 2.87446 29.0693 2.80623 29.371 2.72473C29.9747 2.56158 30.8475 2.346 31.9079 2.14117C34.0382 1.72968 36.8799 1.37066 39.7995 1.54518C42.7268 1.72014 45.6267 2.42491 47.9744 4.04568C50.2804 5.63771 52.1802 8.1988 53.0061 12.358C53.797 16.3413 52.9863 21.5959 51.1071 26.878C49.2379 32.1321 46.3834 37.2102 43.313 40.7968C41.7767 42.5913 40.2312 43.9598 38.7795 44.804C37.3238 45.6505 36.0836 45.9037 35.067 45.7018C34.0849 45.5068 33.0233 44.8294 32.016 43.1942C30.9945 41.5359 30.0911 38.9806 29.4677 35.2677L26.5159 35.2304C25.0479 42.798 22.5204 45.254 20.3769 45.6327C19.2497 45.8319 17.9101 45.546 16.3797 44.6775C14.8524 43.8108 13.2414 42.4208 11.6511 40.6129C8.47128 36.9981 5.54511 31.9083 3.65621 26.6813C1.7552 21.4207 0.984698 16.244 1.85855 12.3982C2.73661 8.534 4.7084 6.08491 7.14863 4.51449C9.63294 2.9157 12.69 2.17511 15.7573 1.93607C18.8143 1.69782 21.7803 1.96545 23.9972 2.29898C25.1015 2.46513 26.01 2.64609 26.6387 2.78452C26.9528 2.85369 27.1964 2.9121 27.359 2.95253C27.4402 2.97274 27.5012 2.98844 27.5405 2.99873L27.5831 3.00999L27.5919 3.01235L27.5921 3.01243L27.5929 3.01263L27.5931 3.01268L28.0283 3.13192L28.4568 2.99073L28.4571 2.99064L28.4578 2.9904L28.4579 2.99037Z" fill="white" stroke="#4643D2" stroke-width="3"/>
<path d="M22.109 27.0161C26.2458 29.6485 28.0045 29.4652 32.0628 27.1801" stroke="#4643D2" stroke-width="2"/>
<path d="M22.7937 17.4361C22.7937 20.5228 20.5434 22.8561 17.9661 22.8561C15.3888 22.8561 13.1385 20.5228 13.1385 17.4361C13.1385 14.3494 15.3888 12.0161 17.9661 12.0161C20.5434 12.0161 22.7937 14.3494 22.7937 17.4361Z" fill="white" stroke="#4643D2" stroke-width="2"/>
<path d="M41.5566 17.4361C41.5566 20.5228 39.3063 22.8561 36.729 22.8561C34.1518 22.8561 31.9015 20.5228 31.9015 17.4361C31.9015 14.3494 34.1518 12.0161 36.729 12.0161C39.3063 12.0161 41.5566 14.3494 41.5566 17.4361Z" fill="white" stroke="#4643D2" stroke-width="2"/>
<path d="M23.1756 17.3275C23.1756 20.2608 21.1973 23.0161 19.9377 23.0161C18.6782 23.0161 17.6571 20.2608 17.6571 17.3275C17.6571 14.3941 18.6782 12.0161 19.9377 12.0161C21.1973 12.0161 23.1756 14.3941 23.1756 17.3275Z" fill="#4643D2"/>
<path d="M41.9386 17.3275C41.9386 20.2608 39.9602 23.0161 38.7007 23.0161C37.4411 23.0161 36.42 20.2608 36.42 17.3275C36.42 14.3941 37.4411 12.0161 38.7007 12.0161C39.9602 12.0161 41.9386 14.3941 41.9386 17.3275Z" fill="#4643D2"/>
<path d="M31.2 36.5C31.2763 37.4533 29.6012 35.6649 28.4573 35.6649C27.3135 35.6649 24.6793 36.7526 24.8671 35.6649C25.3719 32.7409 27.8505 32.7971 28.6494 32.8725C30 33 31 34 31.2 36.5Z" fill="#4643D2"/>
<path d="M63.6456 42.4183C61.6035 42.4183 59.8447 41.982 58.3693 41.1094C56.9029 40.2277 55.7694 38.9908 54.9688 37.3984C54.1771 35.7971 53.7812 33.9214 53.7812 31.7713C53.7812 29.6482 54.1771 27.777 54.9688 26.1577C55.7694 24.5384 56.8849 23.2744 58.3153 22.3658C59.7547 21.4571 61.437 21.0028 63.3622 21.0028C64.5317 21.0028 65.6652 21.1963 66.7628 21.5831C67.8603 21.9699 68.8454 22.5772 69.718 23.4048C70.5907 24.2325 71.2789 25.3075 71.7827 26.63C72.2865 27.9434 72.5384 29.5402 72.5384 31.4205V32.8509H56.0618V29.8281H68.5845C68.5845 28.7666 68.3686 27.8265 67.9368 27.0078C67.505 26.1802 66.8977 25.5279 66.1151 25.0511C65.3414 24.5743 64.4328 24.3359 63.3892 24.3359C62.2557 24.3359 61.2661 24.6148 60.4205 25.1726C59.5838 25.7214 58.9361 26.4411 58.4773 27.3317C58.0275 28.2133 57.8026 29.1714 57.8026 30.206V32.5675C57.8026 33.9529 58.0455 35.1314 58.5312 36.103C59.026 37.0746 59.7143 37.8168 60.5959 38.3295C61.4775 38.8333 62.5076 39.0852 63.6861 39.0852C64.4508 39.0852 65.148 38.9773 65.7777 38.7614C66.4074 38.5365 66.9517 38.2036 67.4105 37.7628C67.8693 37.322 68.2202 36.7777 68.4631 36.13L72.282 36.8182C71.9761 37.9427 71.4273 38.9278 70.6357 39.7734C69.853 40.6101 68.8679 41.2623 67.6804 41.7301C66.5019 42.1889 65.157 42.4183 63.6456 42.4183ZM82.5699 29.6932V42H78.5351V21.2727H82.408V24.6463H82.6644C83.1412 23.5488 83.8878 22.6671 84.9044 22.0014C85.93 21.3357 87.2209 21.0028 88.7773 21.0028C90.1897 21.0028 91.4267 21.2997 92.4882 21.8935C93.5498 22.4782 94.3729 23.3509 94.9577 24.5114C95.5424 25.6719 95.8348 27.1068 95.8348 28.8161V42H91.8V29.3018C91.8 27.7995 91.4087 26.6255 90.626 25.7798C89.8433 24.9252 88.7683 24.4979 87.4009 24.4979C86.4653 24.4979 85.6331 24.7003 84.9044 25.1051C84.1847 25.5099 83.6135 26.1037 83.1906 26.8864C82.7768 27.66 82.5699 28.5956 82.5699 29.6932ZM112.441 21.2727V24.5114H101.12V21.2727H112.441ZM104.156 16.3068H108.191V35.9141C108.191 36.6967 108.308 37.286 108.542 37.6818C108.776 38.0687 109.077 38.334 109.446 38.478C109.824 38.6129 110.233 38.6804 110.674 38.6804C110.998 38.6804 111.281 38.6579 111.524 38.6129C111.767 38.5679 111.956 38.532 112.091 38.505L112.819 41.8381C112.585 41.928 112.253 42.018 111.821 42.108C111.389 42.2069 110.849 42.2609 110.201 42.2699C109.14 42.2879 108.15 42.099 107.233 41.7031C106.315 41.3073 105.573 40.6955 105.006 39.8679C104.439 39.0402 104.156 38.0012 104.156 36.7507V16.3068ZM124.457 42.4588C123.143 42.4588 121.956 42.2159 120.894 41.7301C119.833 41.2353 118.991 40.5201 118.371 39.5845C117.759 38.6489 117.453 37.5019 117.453 36.1435C117.453 34.974 117.678 34.0114 118.128 33.2557C118.578 32.5 119.185 31.9018 119.95 31.4609C120.714 31.0201 121.569 30.6873 122.513 30.4624C123.458 30.2375 124.421 30.0665 125.401 29.9496C126.643 29.8056 127.65 29.6887 128.424 29.5987C129.198 29.4998 129.76 29.3423 130.111 29.1264C130.462 28.9105 130.637 28.5597 130.637 28.0739V27.9794C130.637 26.8009 130.304 25.8878 129.638 25.2401C128.982 24.5923 128.001 24.2685 126.697 24.2685C125.338 24.2685 124.268 24.5698 123.485 25.1726C122.711 25.7663 122.176 26.4276 121.879 27.1562L118.087 26.2926C118.537 25.0331 119.194 24.0166 120.058 23.2429C120.93 22.4602 121.933 21.8935 123.067 21.5426C124.2 21.1828 125.392 21.0028 126.643 21.0028C127.47 21.0028 128.348 21.1018 129.274 21.2997C130.21 21.4886 131.082 21.8395 131.892 22.3523C132.711 22.8651 133.381 23.5982 133.903 24.5518C134.424 25.4964 134.685 26.7244 134.685 28.2358V42H130.745V39.1662H130.583C130.322 39.688 129.931 40.2008 129.409 40.7045C128.887 41.2083 128.217 41.6267 127.398 41.9595C126.58 42.2924 125.599 42.4588 124.457 42.4588ZM125.334 39.2202C126.449 39.2202 127.403 38.9998 128.195 38.5589C128.995 38.1181 129.602 37.5424 130.016 36.8317C130.439 36.112 130.651 35.3428 130.651 34.5241V31.8523C130.507 31.9962 130.228 32.1312 129.814 32.2571C129.409 32.3741 128.946 32.4775 128.424 32.5675C127.902 32.6484 127.394 32.7249 126.899 32.7969C126.404 32.8598 125.991 32.9138 125.658 32.9588C124.875 33.0578 124.16 33.2242 123.512 33.4581C122.873 33.692 122.361 34.0294 121.974 34.4702C121.596 34.902 121.407 35.4777 121.407 36.1974C121.407 37.196 121.776 37.9517 122.513 38.4645C123.251 38.9683 124.191 39.2202 125.334 39.2202Z" fill="#4643D2"/>
</svg>
